<svg width="336" height="336" viewBox="0 0 336 336" fill="none" xmlns="http://www.w3.org/2000/svg">
<g clip-path="url(#clip0_1_11)">
<circle cx="168" cy="168" r="168" fill="url(#paint0_linear_1_11)"/>
<path d="M101.5 267.75C98.3597 267.75 95.7274 266.688 93.6031 264.564C91.4788 262.439 90.4166 259.807 90.4166 256.667V233.946C87.0916 230.251 84.4132 226.141 82.3812 221.616C80.3493 217.09 79.3333 212.149 79.3333 206.792V101.5C79.3333 86.1681 86.4451 74.9462 100.669 67.8344C114.892 60.7226 137.336 57.1667 168 57.1667C199.772 57.1667 222.493 60.584 236.162 67.4187C249.832 74.2535 256.667 85.6139 256.667 101.5V206.792C256.667 212.149 255.651 217.09 253.619 221.616C251.587 226.141 248.908 230.251 245.583 233.946V256.667C245.583 259.807 244.521 262.439 242.397 264.564C240.273 266.688 237.64 267.75 234.5 267.75H223.417C220.276 267.75 217.644 266.688 215.52 264.564C213.395 262.439 212.333 259.807 212.333 256.667V245.583H123.667V256.667C123.667 259.807 122.604 262.439 120.48 264.564C118.356 266.688 115.724 267.75 112.583 267.75H101.5ZM168.554 90.4167H230.621H106.487H168.554ZM212.333 168H101.5H234.5H212.333ZM101.5 145.833H234.5V112.583H101.5V145.833ZM129.208 212.333C133.826 212.333 137.752 210.717 140.984 207.484C144.217 204.252 145.833 200.326 145.833 195.708C145.833 191.09 144.217 187.165 140.984 183.932C137.752 180.7 133.826 179.083 129.208 179.083C124.59 179.083 120.665 180.7 117.432 183.932C114.2 187.165 112.583 191.09 112.583 195.708C112.583 200.326 114.2 204.252 117.432 207.484C120.665 210.717 124.59 212.333 129.208 212.333ZM206.792 212.333C211.41 212.333 215.335 210.717 218.568 207.484C221.8 204.252 223.417 200.326 223.417 195.708C223.417 191.09 221.8 187.165 218.568 183.932C215.335 180.7 211.41 179.083 206.792 179.083C202.174 179.083 198.248 180.7 195.016 183.932C191.783 187.165 190.167 191.09 190.167 195.708C190.167 200.326 191.783 204.252 195.016 207.484C198.248 210.717 202.174 212.333 206.792 212.333ZM106.487 90.4167H230.621C227.85 87.2764 221.893 84.6441 212.749 82.5198C203.605 80.3955 188.874 79.3333 168.554 79.3333C148.789 79.3333 134.334 80.4878 125.191 82.7969C116.047 85.1059 109.812 87.6458 106.487 90.4167ZM123.667 223.417H212.333C218.429 223.417 223.648 221.246 227.989 216.905C232.329 212.564 234.5 207.346 234.5 201.25V168H101.5V201.25C101.5 207.346 103.67 212.564 108.011 216.905C112.352 221.246 117.571 223.417 123.667 223.417Z" fill="white"/>
</g>
<defs>
<linearGradient id="paint0_linear_1_11" x1="168" y1="0" x2="168" y2="336" gradientUnits="userSpaceOnUse">
<stop stop-color="#4E87DD"/>
<stop offset="1" stop-color="#435F88"/>
</linearGradient>
<clipPath id="clip0_1_11">
<rect width="336" height="336" fill="white"/>
</clipPath>
</defs>
</svg>
